<svg width="1440" height="384" viewBox="0 0 1440 384" fill="none" xmlns="http://www.w3.org/2000/svg">
<path fill-rule="evenodd" clip-rule="evenodd" d="M111.896 143.271H31.226L18.4735 172.928H-23.764L51.5035 0.5H94.0247L169.05 172.928H124.648L111.896 143.271ZM46.333 108.034H96.7886L71.5608 49.2825L46.333 108.034ZM189.443 172.928V0.741108H260.684C318.1 0.741108 354.782 32.5623 354.782 86.8343C354.782 140.325 317.589 172.928 260.684 172.928H189.443ZM231.347 36.9428V136.726H259.962C291.857 136.726 312.156 117.776 312.156 86.8343C312.156 55.1193 292.339 36.9428 259.962 36.9428H231.347ZM489.075 143.271H408.405L395.652 172.928H353.415L428.682 0.5H471.204L546.229 172.928H501.827L489.075 143.271ZM423.512 108.034H473.968L448.74 49.2825L423.512 108.034ZM608.285 112.651V172.928H566.622V0.741108H666.977C706.418 0.741108 728.833 20.6282 728.833 56.4548C728.833 92.2375 706.191 112.651 666.977 112.651H608.285ZM608.285 37.425V75.9667H663.127C678.097 75.9667 685.967 69.0585 685.967 56.6959C685.967 43.736 678.513 37.425 663.127 37.425H608.285ZM850.584 37.425V172.928H808.921V37.425H744.195V0.741108H915.309V37.425H850.584Z" stroke="#14C5C4"/>
<path fill-rule="evenodd" clip-rule="evenodd" d="M614.083 383.258C561.872 383.258 522.992 345.855 522.992 294.153C522.992 241.978 561.605 205.048 614.083 205.048C666.355 205.048 704.933 242.013 704.933 294.153C704.933 345.82 666.088 383.258 614.083 383.258ZM614.083 345.561C642.857 345.561 662.363 323.94 662.363 294.153C662.363 264.52 642.781 242.745 614.083 242.745C585.418 242.745 565.563 264.521 565.563 294.153C565.563 323.939 585.341 345.561 614.083 345.561ZM858.202 339.994V312.519H804.376V277.96H898.369V359.083L898.199 359.232C892.114 364.582 882.79 370.194 871.589 374.563C856.97 380.265 840.236 383.5 821.696 383.5C763.374 383.5 725.8 347.872 725.8 293.187C725.8 241.295 762.739 204.323 814.968 204.323C839.305 204.323 858.556 210.763 872.741 222.179C884.021 231.256 891.492 243.129 894.508 254.673L894.672 255.3H850.782L850.632 255.124C843.674 246.968 831.783 241.055 814.968 241.055C787.166 241.055 768.13 262.903 768.13 293.187C768.13 326.098 788.655 347.251 822.658 347.251C838.555 347.251 851.527 344.246 858.202 339.994V339.994ZM973.821 242.745V272.648H1034.62V308.173H973.821V343.871H1085.08V380.361H931.972V207.945H1075.71V242.745H973.821ZM1151.16 263.248V380.361H1110.27V207.945H1157.39L1237.38 311.998V207.945H1277.31V380.844H1243.41L1151.16 263.248ZM1379.18 238.641C1360.23 238.641 1349.88 244.273 1349.88 254.317C1349.88 263.293 1357.38 268.549 1372.5 270.237C1375.9 270.587 1379.11 270.888 1382.97 271.225C1383.75 271.293 1384.58 271.364 1385.5 271.443C1386.27 271.509 1390.71 271.886 1392.06 272.001C1394.72 272.23 1397.02 272.433 1399.4 272.65C1442.2 276.101 1464.5 293.205 1464.5 327.712C1464.5 362.767 1437.05 383.5 1388.31 383.5C1361 383.5 1340.19 377.16 1325.4 365.619C1313.23 356.114 1305.62 343.418 1302.28 329.276L1302.13 328.661H1346.11L1346.24 328.967C1351.24 340.915 1365.59 349.424 1388.31 349.424C1409.9 349.424 1421.21 342.469 1421.21 330.609C1421.21 319.144 1413.84 314.135 1396.9 312.274C1392.05 311.707 1387.93 311.292 1382.17 310.767C1381.69 310.723 1381.18 310.677 1380.6 310.624C1373.33 309.967 1372.89 309.927 1369.75 309.619C1329.89 305.511 1307.07 287.145 1307.07 256.007C1307.07 223.929 1335.28 204.806 1379.18 204.806C1405.22 204.806 1425 210.562 1438.95 221.022C1450.4 229.612 1457.46 241.067 1460.4 253.721L1460.54 254.334H1418.54L1418.4 254.088C1413.21 245.3 1399.44 238.641 1379.18 238.641Z" stroke="#14C5C4"/>
</svg>
