<svg width="121" height="317" viewBox="0 0 121 317" fill="none" xmlns="http://www.w3.org/2000/svg">
<g clip-path="url(#clip0)">
<path d="M119.671 177.134H1.48779V195.677H119.671V177.134Z" stroke="#14C5C4"/>
<path d="M119.671 206.412H1.48779V224.955H119.671V206.412Z" stroke="#14C5C4"/>
<path d="M119.671 235.691H1.48779V254.234H119.671V235.691Z" stroke="#14C5C4"/>
<path d="M119.671 264.969H1.48779V283.512H119.671V264.969Z" stroke="#14C5C4"/>
</g>
<path d="M34.4219 303.93C33.1354 303.56 32.1979 303.107 31.6094 302.57C31.026 302.029 30.7344 301.362 30.7344 300.57C30.7344 299.674 31.0911 298.935 31.8047 298.352C32.5234 297.763 33.4557 297.469 34.6016 297.469C35.3828 297.469 36.0781 297.62 36.6875 297.922C37.3021 298.224 37.776 298.641 38.1094 299.172C38.4479 299.703 38.6172 300.284 38.6172 300.914H37.1094C37.1094 300.227 36.8906 299.688 36.4531 299.297C36.0156 298.901 35.3984 298.703 34.6016 298.703C33.862 298.703 33.2839 298.867 32.8672 299.195C32.4557 299.518 32.25 299.969 32.25 300.547C32.25 301.01 32.4453 301.404 32.8359 301.727C33.2318 302.044 33.901 302.336 34.8438 302.602C35.7917 302.867 36.5312 303.161 37.0625 303.484C37.599 303.802 37.9948 304.174 38.25 304.602C38.5104 305.029 38.6406 305.531 38.6406 306.109C38.6406 307.031 38.2812 307.771 37.5625 308.328C36.8438 308.88 35.8828 309.156 34.6797 309.156C33.8984 309.156 33.1693 309.008 32.4922 308.711C31.8151 308.409 31.2917 307.997 30.9219 307.477C30.5573 306.956 30.375 306.365 30.375 305.703H31.8828C31.8828 306.391 32.1354 306.935 32.6406 307.336C33.151 307.732 33.8307 307.93 34.6797 307.93C35.4714 307.93 36.0781 307.768 36.5 307.445C36.9219 307.122 37.1328 306.682 37.1328 306.125C37.1328 305.568 36.9375 305.138 36.5469 304.836C36.1562 304.529 35.4479 304.227 34.4219 303.93ZM42.3047 298.5V300.547H43.8828V301.664H42.3047V306.906C42.3047 307.245 42.375 307.5 42.5156 307.672C42.6562 307.839 42.8958 307.922 43.2344 307.922C43.401 307.922 43.6302 307.891 43.9219 307.828V309C43.5417 309.104 43.1719 309.156 42.8125 309.156C42.1667 309.156 41.6797 308.961 41.3516 308.57C41.0234 308.18 40.8594 307.625 40.8594 306.906V301.664H39.3203V300.547H40.8594V298.5H42.3047ZM49.6641 301.844C49.4453 301.807 49.2083 301.789 48.9531 301.789C48.0052 301.789 47.362 302.193 47.0234 303V309H45.5781V300.547H46.9844L47.0078 301.523C47.4818 300.768 48.1536 300.391 49.0234 300.391C49.3047 300.391 49.5182 300.427 49.6641 300.5V301.844ZM54.3516 309.156C53.2057 309.156 52.2734 308.781 51.5547 308.031C50.8359 307.276 50.4766 306.268 50.4766 305.008V304.742C50.4766 303.904 50.6354 303.156 50.9531 302.5C51.276 301.839 51.724 301.323 52.2969 300.953C52.875 300.578 53.5 300.391 54.1719 300.391C55.2708 300.391 56.125 300.753 56.7344 301.477C57.3438 302.201 57.6484 303.237 57.6484 304.586V305.188H51.9219C51.9427 306.021 52.1849 306.695 52.6484 307.211C53.1172 307.721 53.7109 307.977 54.4297 307.977C54.9401 307.977 55.3724 307.872 55.7266 307.664C56.0807 307.456 56.3906 307.18 56.6562 306.836L57.5391 307.523C56.8307 308.612 55.7682 309.156 54.3516 309.156ZM54.1719 301.578C53.5885 301.578 53.099 301.792 52.7031 302.219C52.3073 302.641 52.0625 303.234 51.9688 304H56.2031V303.891C56.1615 303.156 55.9635 302.589 55.6094 302.188C55.2552 301.781 54.776 301.578 54.1719 301.578ZM64.25 306.758C64.25 306.367 64.1016 306.065 63.8047 305.852C63.513 305.633 63 305.445 62.2656 305.289C61.5365 305.133 60.9557 304.945 60.5234 304.727C60.0964 304.508 59.7786 304.247 59.5703 303.945C59.3672 303.643 59.2656 303.284 59.2656 302.867C59.2656 302.174 59.5573 301.589 60.1406 301.109C60.7292 300.63 61.4792 300.391 62.3906 300.391C63.349 300.391 64.125 300.638 64.7188 301.133C65.3177 301.628 65.6172 302.26 65.6172 303.031H64.1641C64.1641 302.635 63.9948 302.294 63.6562 302.008C63.3229 301.721 62.901 301.578 62.3906 301.578C61.8646 301.578 61.4531 301.693 61.1562 301.922C60.8594 302.151 60.7109 302.451 60.7109 302.82C60.7109 303.169 60.849 303.432 61.125 303.609C61.401 303.786 61.8984 303.956 62.6172 304.117C63.3411 304.279 63.9271 304.471 64.375 304.695C64.8229 304.919 65.1536 305.19 65.3672 305.508C65.5859 305.82 65.6953 306.203 65.6953 306.656C65.6953 307.411 65.3932 308.018 64.7891 308.477C64.1849 308.93 63.401 309.156 62.4375 309.156C61.7604 309.156 61.1615 309.036 60.6406 308.797C60.1198 308.557 59.7109 308.224 59.4141 307.797C59.1224 307.365 58.9766 306.898 58.9766 306.398H60.4219C60.4479 306.883 60.6406 307.268 61 307.555C61.3646 307.836 61.8438 307.977 62.4375 307.977C62.9844 307.977 63.4219 307.867 63.75 307.648C64.0833 307.424 64.25 307.128 64.25 306.758ZM72.5 306.758C72.5 306.367 72.3516 306.065 72.0547 305.852C71.763 305.633 71.25 305.445 70.5156 305.289C69.7865 305.133 69.2057 304.945 68.7734 304.727C68.3464 304.508 68.0286 304.247 67.8203 303.945C67.6172 303.643 67.5156 303.284 67.5156 302.867C67.5156 302.174 67.8073 301.589 68.3906 301.109C68.9792 300.63 69.7292 300.391 70.6406 300.391C71.599 300.391 72.375 300.638 72.9688 301.133C73.5677 301.628 73.8672 302.26 73.8672 303.031H72.4141C72.4141 302.635 72.2448 302.294 71.9062 302.008C71.5729 301.721 71.151 301.578 70.6406 301.578C70.1146 301.578 69.7031 301.693 69.4062 301.922C69.1094 302.151 68.9609 302.451 68.9609 302.82C68.9609 303.169 69.099 303.432 69.375 303.609C69.651 303.786 70.1484 303.956 70.8672 304.117C71.5911 304.279 72.1771 304.471 72.625 304.695C73.0729 304.919 73.4036 305.19 73.6172 305.508C73.8359 305.82 73.9453 306.203 73.9453 306.656C73.9453 307.411 73.6432 308.018 73.0391 308.477C72.4349 308.93 71.651 309.156 70.6875 309.156C70.0104 309.156 69.4115 309.036 68.8906 308.797C68.3698 308.557 67.9609 308.224 67.6641 307.797C67.3724 307.365 67.2266 306.898 67.2266 306.398H68.6719C68.6979 306.883 68.8906 307.268 69.25 307.555C69.6146 307.836 70.0938 307.977 70.6875 307.977C71.2344 307.977 71.6719 307.867 72 307.648C72.3333 307.424 72.5 307.128 72.5 306.758ZM79.3359 309.156C78.1901 309.156 77.2578 308.781 76.5391 308.031C75.8203 307.276 75.4609 306.268 75.4609 305.008V304.742C75.4609 303.904 75.6198 303.156 75.9375 302.5C76.2604 301.839 76.7083 301.323 77.2812 300.953C77.8594 300.578 78.4844 300.391 79.1562 300.391C80.2552 300.391 81.1094 300.753 81.7188 301.477C82.3281 302.201 82.6328 303.237 82.6328 304.586V305.188H76.9062C76.9271 306.021 77.1693 306.695 77.6328 307.211C78.1016 307.721 78.6953 307.977 79.4141 307.977C79.9245 307.977 80.3568 307.872 80.7109 307.664C81.0651 307.456 81.375 307.18 81.6406 306.836L82.5234 307.523C81.8151 308.612 80.7526 309.156 79.3359 309.156ZM79.1562 301.578C78.5729 301.578 78.0833 301.792 77.6875 302.219C77.2917 302.641 77.0469 303.234 76.9531 304H81.1875V303.891C81.1458 303.156 80.9479 302.589 80.5938 302.188C80.2396 301.781 79.7604 301.578 79.1562 301.578ZM83.9609 304.703C83.9609 303.406 84.2682 302.365 84.8828 301.578C85.4974 300.786 86.3021 300.391 87.2969 300.391C88.2865 300.391 89.0703 300.729 89.6484 301.406V297H91.0938V309H89.7656L89.6953 308.094C89.1172 308.802 88.3125 309.156 87.2812 309.156C86.3021 309.156 85.5026 308.755 84.8828 307.953C84.2682 307.151 83.9609 306.104 83.9609 304.812V304.703ZM85.4062 304.867C85.4062 305.826 85.6042 306.576 86 307.117C86.3958 307.659 86.9427 307.93 87.6406 307.93C88.5573 307.93 89.2266 307.518 89.6484 306.695V302.812C89.2161 302.016 88.5521 301.617 87.6562 301.617C86.9479 301.617 86.3958 301.891 86 302.438C85.6042 302.984 85.4062 303.794 85.4062 304.867Z" fill="#202727"/>
<defs>
<clipPath id="clip0">
<rect width="120" height="284" fill="white" transform="translate(1)"/>
</clipPath>
</defs>
</svg>
