<svg width="121" height="317" viewBox="0 0 121 317" fill="none" xmlns="http://www.w3.org/2000/svg">
<g clip-path="url(#clip0)">
<path d="M119.671 0.487915H1.48779V19.0309H119.671V0.487915Z" fill="#14C5C4" stroke="#14C5C4"/>
<path d="M119.671 29.7662H1.48779V48.3092H119.671V29.7662Z" fill="#14C5C4" stroke="#14C5C4"/>
<path d="M119.671 60.0205H1.48779V78.5635H119.671V60.0205Z" fill="#14C5C4" stroke="#14C5C4"/>
<path d="M119.671 89.299H1.48779V107.842H119.671V89.299Z" fill="#14C5C4" stroke="#14C5C4"/>
<path d="M119.671 118.577H1.48779V137.12H119.671V118.577Z" fill="#14C5C4" stroke="#14C5C4"/>
<path d="M119.671 147.856H1.48779V166.399H119.671V147.856Z" fill="#14C5C4" stroke="#14C5C4"/>
<path d="M119.671 177.134H1.48779V195.677H119.671V177.134Z" fill="#14C5C4" stroke="#14C5C4"/>
<path d="M119.671 206.412H1.48779V224.955H119.671V206.412Z" fill="#14C5C4" stroke="#14C5C4"/>
<path d="M119.671 235.691H1.48779V254.234H119.671V235.691Z" fill="#14C5C4" stroke="#14C5C4"/>
<path d="M119.671 264.969H1.48779V283.512H119.671V264.969Z" fill="#14C5C4" stroke="#14C5C4"/>
</g>
<path d="M44.1328 303.742H39.2031V307.773H44.9297V309H37.7031V297.625H44.8516V298.859H39.2031V302.516H44.1328V303.742ZM47.9375 300.547L47.9844 301.609C48.6302 300.797 49.474 300.391 50.5156 300.391C52.3021 300.391 53.2031 301.398 53.2188 303.414V309H51.7734V303.406C51.7682 302.797 51.6276 302.346 51.3516 302.055C51.0807 301.763 50.6562 301.617 50.0781 301.617C49.6094 301.617 49.1979 301.742 48.8438 301.992C48.4896 302.242 48.2135 302.57 48.0156 302.977V309H46.5703V300.547H47.9375ZM58.9062 309.156C57.7604 309.156 56.8281 308.781 56.1094 308.031C55.3906 307.276 55.0312 306.268 55.0312 305.008V304.742C55.0312 303.904 55.1901 303.156 55.5078 302.5C55.8307 301.839 56.2786 301.323 56.8516 300.953C57.4297 300.578 58.0547 300.391 58.7266 300.391C59.8255 300.391 60.6797 300.753 61.2891 301.477C61.8984 302.201 62.2031 303.237 62.2031 304.586V305.188H56.4766C56.4974 306.021 56.7396 306.695 57.2031 307.211C57.6719 307.721 58.2656 307.977 58.9844 307.977C59.4948 307.977 59.9271 307.872 60.2812 307.664C60.6354 307.456 60.9453 307.18 61.2109 306.836L62.0938 307.523C61.3854 308.612 60.3229 309.156 58.9062 309.156ZM58.7266 301.578C58.1432 301.578 57.6536 301.792 57.2578 302.219C56.862 302.641 56.6172 303.234 56.5234 304H60.7578V303.891C60.7161 303.156 60.5182 302.589 60.1641 302.188C59.8099 301.781 59.3307 301.578 58.7266 301.578ZM67.9688 301.844C67.75 301.807 67.513 301.789 67.2578 301.789C66.3099 301.789 65.6667 302.193 65.3281 303V309H63.8828V300.547H65.2891L65.3125 301.523C65.7865 300.768 66.4583 300.391 67.3281 300.391C67.6094 300.391 67.8229 300.427 67.9688 300.5V301.844ZM68.8047 304.703C68.8047 303.385 69.1094 302.339 69.7188 301.562C70.3281 300.781 71.1354 300.391 72.1406 300.391C73.1719 300.391 73.9766 300.755 74.5547 301.484L74.625 300.547H75.9453V308.797C75.9453 309.891 75.6198 310.753 74.9688 311.383C74.3229 312.013 73.4531 312.328 72.3594 312.328C71.75 312.328 71.1536 312.198 70.5703 311.938C69.987 311.677 69.5417 311.32 69.2344 310.867L69.9844 310C70.6042 310.766 71.362 311.148 72.2578 311.148C72.9609 311.148 73.5078 310.951 73.8984 310.555C74.2943 310.159 74.4922 309.602 74.4922 308.883V308.156C73.9141 308.823 73.125 309.156 72.125 309.156C71.1354 309.156 70.3333 308.758 69.7188 307.961C69.1094 307.164 68.8047 306.078 68.8047 304.703ZM70.2578 304.867C70.2578 305.82 70.4531 306.57 70.8438 307.117C71.2344 307.659 71.7812 307.93 72.4844 307.93C73.3958 307.93 74.0651 307.516 74.4922 306.688V302.828C74.0495 302.021 73.3854 301.617 72.5 301.617C71.7969 301.617 71.2474 301.891 70.8516 302.438C70.4557 302.984 70.2578 303.794 70.2578 304.867ZM80.8984 306.883L82.8672 300.547H84.4141L81.0156 310.305C80.4896 311.711 79.6536 312.414 78.5078 312.414L78.2344 312.391L77.6953 312.289V311.117L78.0859 311.148C78.5755 311.148 78.9557 311.049 79.2266 310.852C79.5026 310.654 79.7292 310.292 79.9062 309.766L80.2266 308.906L77.2109 300.547H78.7891L80.8984 306.883Z" fill="#202727"/>
<defs>
<clipPath id="clip0">
<rect width="120" height="284" fill="white" transform="translate(1)"/>
</clipPath>
</defs>
</svg>
